<svg width="297" height="321" viewBox="0 0 297 321" fill="none" xmlns="http://www.w3.org/2000/svg">
<path fill-rule="evenodd" clip-rule="evenodd" d="M0.0343102 187.072V221.117C0.0343102 221.117 -1.49277 244.686 15.8287 254.55C33.0629 264.371 118.187 313.124 118.187 313.124C118.187 313.124 142.227 330.845 176.652 313.124C211.121 295.36 273.076 256.689 273.076 256.689C273.076 256.689 294.761 244.86 295.765 219.633C297.248 189.996 295.765 163.765 295.765 163.765C295.765 163.765 296.724 143.12 276.523 157.479C254.446 172.756 161.12 224.827 158.502 226.311C153.179 228.711 144.54 232.377 129.007 222.033C105.359 207.717 23.3768 160.753 23.3768 160.753C23.3768 160.753 3.52478 168.173 0.0343102 187.072Z" fill="#204578"/>
<path fill-rule="evenodd" clip-rule="evenodd" d="M0.0551787 188.92L0.0115476 99.2329C0.0115476 99.2329 -1.21013 78.764 21.4781 65.671C44.1663 52.6652 125.8 5.18093 125.8 5.18093C125.8 5.18093 143.384 -6.73377 168.951 5.57372C194.301 19.3215 287.454 74.2251 287.454 74.2251C287.454 74.2251 306.171 83.2157 289.112 92.5554C272.139 101.982 244.39 118.218 236.318 122.539C228.29 126.816 223.839 132.358 202.547 122.626C182.041 111.06 157.52 96.7015 157.52 96.7015C157.52 96.7015 148.183 89.2821 134.177 98.1854C119.692 107.307 29.5498 158.064 24.2705 161.73C2.93483 175.173 0.0551787 188.92 0.0551787 188.92Z" fill="#AFC5E6"/>
</svg>
