<svg width="1119" height="321" viewBox="0 0 1119 321" fill="none" xmlns="http://www.w3.org/2000/svg">
<path d="M427.478 90.075C396.54 90.075 373.729 111.587 373.729 140.649C373.729 170.139 396.112 192.079 426.48 192.079C441.593 192.079 457.989 184.528 468.824 172.846L451.715 154.611C444.872 161.592 435.605 166.15 427.906 166.15C414.362 166.15 404.096 155.038 404.096 140.364C404.096 125.691 414.362 114.721 427.906 114.721C436.175 114.721 445.442 119.992 451.715 127.97L468.824 107.74C458.701 96.913 442.591 90.075 427.478 90.075Z" fill="black"/>
<path d="M959.35 138.741V163.135C953.93 165.56 948.37 166.986 944.24 166.986C929.7 166.986 918.72 155.859 918.72 140.596C918.72 125.617 929.56 114.347 943.95 114.347C952.65 114.347 962.63 118.627 969.47 125.189L986.3 104.79C975.75 95.517 959.35 89.668 944.1 89.668C911.88 89.668 888.355 111.352 888.355 140.596C888.355 169.982 911.17 191.808 942.1 191.808C956.36 191.808 974.04 186.387 984.87 178.969V138.741H959.35Z" fill="black"/>
<path d="M1029.78 191.266V91.294H1000.11V191.266H1029.78Z" fill="black"/>
<path d="M1076.13 166.451V91.294H1046.44V191.266H1118.1V166.451H1076.13Z" fill="black"/>
<path d="M687.462 191.266V91.294H660.37V147.199L618.019 91.294H592.638V191.266H619.873V135.647L662.223 191.266H687.462Z" fill="black"/>
<path d="M525.854 89.397C494.492 89.397 471.398 110.795 471.398 140.182C471.398 169.711 494.492 191.537 525.854 191.537C557.217 191.537 580.311 169.569 580.311 140.182C580.311 110.938 557.217 89.397 525.854 89.397ZM526.282 114.219C539.397 114.219 549.946 125.203 549.946 140.325C549.946 155.446 539.397 166.715 526.282 166.715C513.167 166.715 501.762 155.446 501.762 140.325C501.762 125.203 513.024 114.219 526.282 114.219Z" fill="black"/>
<path d="M785.267 114.968V91.294H697.487V114.968H726.414V191.266H756.197V114.968H785.267Z" fill="black"/>
<path d="M839.002 84.042L858.105 66.646L833.157 58.376L817.903 84.042H839.002ZM851.404 175.297L857.249 191.266H888.897L847.698 91.314H817.19L774.566 191.266H805.073L811.06 175.297H851.404ZM843.564 153.624H819.329L831.589 120.972L843.564 153.624Z" fill="black"/>
<path fill-rule="evenodd" clip-rule="evenodd" d="M0.0343103 187.072V221.117C0.0343103 221.117 -1.49279 244.686 15.829 254.55C33.063 264.371 118.187 313.124 118.187 313.124C118.187 313.124 142.227 330.845 176.652 313.124C211.121 295.36 273.076 256.689 273.076 256.689C273.076 256.689 294.761 244.86 295.765 219.633C297.248 189.996 295.765 163.765 295.765 163.765C295.765 163.765 296.724 143.12 276.523 157.479C254.446 172.756 161.12 224.827 158.502 226.311C153.179 228.711 144.54 232.377 129.007 222.033C105.359 207.717 23.377 160.753 23.377 160.753C23.377 160.753 3.52481 168.173 0.0343103 187.072Z" fill="#204578"/>
<path fill-rule="evenodd" clip-rule="evenodd" d="M0.0551858 188.92L0.0114846 99.233C0.0114846 99.233 -1.21012 78.764 21.478 65.671C44.166 52.665 125.8 5.1809 125.8 5.1809C125.8 5.1809 143.384 -6.7338 168.951 5.5737C194.301 19.3215 287.454 74.225 287.454 74.225C287.454 74.225 306.171 83.216 289.112 92.555C272.139 101.982 244.39 118.218 236.318 122.539C228.29 126.816 223.839 132.358 202.547 122.626C182.041 111.06 157.52 96.702 157.52 96.702C157.52 96.702 148.183 89.282 134.177 98.185C119.692 107.307 29.55 158.064 24.27 161.73C2.93478 175.173 0.0551858 188.92 0.0551858 188.92Z" fill="#AFC5E6"/>
<path d="M714.486 278.493H703.458L700.218 270.636H678.722L675.482 278.493H664.579L684.143 234.843H695.047L714.486 278.493ZM696.604 261.843L689.564 244.633L682.398 261.843H696.604Z" fill="black"/>
<path d="M936.15 278.493H925.12L921.88 270.636H900.389L897.149 278.493H886.245L905.809 234.843H916.71L936.15 278.493ZM918.27 261.843L911.23 244.633L904.065 261.843H918.27Z" fill="black"/>
<path d="M749.232 255.67C751.355 256.585 753.041 257.988 754.29 259.879C755.539 261.771 756.164 263.901 756.164 266.271C756.164 270.095 754.696 273.089 751.761 275.25C748.826 277.412 744.777 278.493 739.615 278.493H718.008V234.843H739.615C744.32 234.843 748.025 235.882 750.731 237.961C753.437 240.039 754.79 242.866 754.79 246.441C754.79 248.561 754.301 250.422 753.322 252.022C752.344 253.623 750.981 254.839 749.232 255.67ZM739.802 243.261H728.062V251.929H739.802C741.426 251.929 742.675 251.554 743.549 250.806C744.424 250.058 744.861 248.998 744.861 247.626C744.861 246.254 744.413 245.184 743.518 244.415C742.623 243.646 741.384 243.261 739.802 243.261ZM740.302 269.888C742.134 269.888 743.56 269.451 744.58 268.578C745.6 267.705 746.11 266.499 746.11 264.961C746.11 263.382 745.6 262.166 744.58 261.313C743.56 260.461 742.134 260.035 740.302 260.035H728.062V269.888H740.302Z" fill="black"/>
<path d="M861.709 234.843C866.21 234.843 870.159 235.737 873.555 237.524C876.952 239.312 879.577 241.858 881.432 245.163C883.286 248.468 884.213 252.303 884.213 256.668C884.213 261.033 883.286 264.868 881.432 268.173C879.577 271.478 876.952 274.024 873.555 275.811C870.159 277.599 866.21 278.493 861.709 278.493H843.768V234.843H861.709ZM861.709 269.576C865.377 269.576 868.335 268.412 870.586 266.084C872.836 263.756 873.961 260.617 873.961 256.668C873.961 254.049 873.451 251.773 872.43 249.84C871.409 247.907 869.971 246.41 868.117 245.35C866.262 244.29 864.126 243.76 861.709 243.76H854.02V269.576H861.709Z" fill="black"/>
<path d="M958.63 234.843C963.12 234.843 967.05 235.737 970.43 237.524C973.82 239.312 976.43 241.858 978.28 245.163C980.13 248.468 981.05 252.303 981.05 256.668C981.05 261.033 980.13 264.868 978.28 268.173C976.43 271.478 973.82 274.024 970.43 275.811C967.05 277.599 963.12 278.493 958.63 278.493H940.76V234.843H958.63ZM958.63 269.576C962.28 269.576 965.23 268.412 967.47 266.084C969.72 263.756 970.84 260.617 970.84 256.668C970.84 254.049 970.33 251.773 969.31 249.84C968.29 247.907 966.86 246.41 965.01 245.35C963.17 244.29 961.04 243.76 958.63 243.76H950.97V269.576H958.63Z" fill="black"/>
<path d="M1000.06 260.472V269.888H1024.16V278.493H990.13V234.843H1023.47V243.386H1000.06V252.24H1022.23V260.472H1000.06Z" fill="black"/>
<path d="M763.75 278.493V234.843H773.976V278.493H763.75Z" fill="black"/>
<path d="M821.893 278.493V234.843H832.118V278.493H821.893Z" fill="black"/>
<path d="M784.812 278.493V234.843H795.048V269.264H817.016V278.493H784.812Z" fill="black"/>
<path d="M611.646 250.307V234.843H621.836V278.493H612.647L592.83 251.492L592.955 263.278V278.493H582.765V234.843H591.954L611.771 261.968L611.646 250.307Z" fill="black"/>
<path d="M548.83 279.546C544.134 279.546 540.009 278.599 536.455 276.707C532.901 274.815 530.158 272.143 528.225 268.691C526.293 265.24 525.326 261.227 525.326 256.652C525.326 252.078 526.293 248.065 528.225 244.613C530.158 241.161 532.901 238.489 536.455 236.597C540.009 234.705 544.134 233.759 548.83 233.759C553.527 233.759 557.652 234.705 561.206 236.597C564.759 238.489 567.502 241.161 569.435 244.613C571.368 248.065 572.334 252.078 572.334 256.652C572.334 261.227 571.368 265.24 569.435 268.691C567.502 272.143 564.759 274.815 561.206 276.707C557.652 278.599 553.527 279.546 548.83 279.546ZM548.83 270.438C551.449 270.438 553.766 269.866 555.782 268.723C557.797 267.579 559.356 265.968 560.458 263.888C561.559 261.809 562.11 259.397 562.11 256.652C562.11 253.907 561.559 251.495 560.458 249.416C559.356 247.337 557.797 245.725 555.782 244.582C553.766 243.438 551.449 242.866 548.83 242.866C546.212 242.866 543.905 243.438 541.91 244.582C539.915 245.725 538.367 247.337 537.265 249.416C536.164 251.495 535.613 253.907 535.613 256.652C535.613 259.397 536.164 261.809 537.265 263.888C538.367 265.968 539.915 267.579 541.91 268.723C543.905 269.866 546.212 270.438 548.83 270.438Z" fill="black"/>
<path d="M630.235 234.843H667.017V243.76H653.699V278.493H643.492V243.76H630.235V234.843Z" fill="black"/>
<path d="M502.515 279.393C497.827 279.393 493.71 278.437 490.163 276.525C486.617 274.613 483.879 271.933 481.95 268.483C480.021 265.034 479.057 261.064 479.057 256.576C479.057 252.087 480.042 248.108 482.012 244.637C483.983 241.167 486.731 238.486 490.257 236.595C493.783 234.704 497.807 233.759 502.328 233.759C508.758 233.759 514.275 236.024 518.879 240.554L512.595 246.851C509.816 244.191 506.476 242.861 502.577 242.861C499.964 242.861 497.651 243.432 495.639 244.575C493.627 245.718 492.072 247.328 490.972 249.407C489.873 251.485 489.323 253.874 489.323 256.576C489.323 259.277 489.873 261.667 490.972 263.745C492.072 265.823 493.627 267.434 495.639 268.577C497.651 269.72 499.964 270.291 502.577 270.291C504.651 270.291 506.642 269.917 508.55 269.169C510.459 268.421 512.118 267.34 513.528 265.927L519.502 272.598C514.814 277.128 509.152 279.393 502.515 279.393Z" fill="black"/>
</svg>
